<svg width="50" height="40" viewBox="0 0 50 40" fill="none" xmlns="http://www.w3.org/2000/svg">
<g clip-path="url(#clip0_47_103)">
<path d="M6.16365 0.145508L4.00134 0.826676L3.5459 1.85041L0.134125 2.30584V4.46815L1.27072 5.60475L2.4093 7.08392L2.63702 9.47196L5.25278 7.53935L5.59337 9.13138L9.23484 9.3591L10.714 8.7908L11.9635 9.01851L12.0783 10.0422L13.2149 11.1788L12.4189 12.3174L10.9397 13.1134L11.0546 15.9569L10.8269 18.345L10.0309 20.8479L8.43883 21.3033L9.80314 23.9191L9.34771 27.3328L10.2586 28.6971L8.89228 29.9486L8.66456 33.4752C8.66456 33.4752 10.0314 33.5889 10.714 34.4989C11.3965 35.4091 12.306 36.6613 12.306 36.6613C12.306 36.6613 11.9644 38.5942 13.1021 39.0493C14.2397 39.5043 15.0367 39.3919 15.0367 39.3919L16.6287 37.1167H18.9039L20.7236 35.5227L23.4542 35.4098L24.9334 36.5464L26.6403 35.9781L28.5729 35.8652L30.6203 33.1346L32.3272 32.2238L33.9193 31.7703L35.5133 28.5843L37.4459 26.1942L35.8539 24.2616L35.9667 21.3033L38.129 19.143L40.0636 16.2975L40.4042 15.2738L41.8834 13.5689L44.2714 13.3412L46.7743 11.6343L49.1644 10.0422L49.6178 7.99478L49.8455 6.36315L47.4575 6.40077L44.614 5.83247L42.9071 4.69389L41.0874 4.46815H37.6736L35.739 4.24044L32.4025 3.1771L32.7054 1.81279L31.4936 0.295998L30.2798 2.42069L26.866 2.19297L23.6819 1.73754L21.179 1.50982L18.9039 1.96526L11.1675 1.50982L7.75568 1.05439L6.16365 0.145508ZM24.4582 9.6284H24.4602C26.007 9.6284 27.3314 10.1564 28.4363 11.2125C29.5411 12.2685 30.0937 13.5359 30.0937 15.0144C30.0937 16.1549 29.387 17.3377 27.9729 18.5628C26.5588 19.7456 25.8522 20.8227 25.8522 21.7944H23.0662C23.0662 20.8227 23.2876 19.999 23.7295 19.3232C24.1714 18.605 24.6586 18.098 25.1889 17.8024C25.7192 17.4645 26.2043 17.0632 26.6463 16.5985C27.0882 16.1338 27.3096 15.6058 27.3096 15.0144C27.3096 14.2963 27.0228 13.6836 26.4482 13.1768C25.8738 12.6275 25.2113 12.3531 24.4602 12.3531C23.709 12.3531 23.0445 12.6276 22.4701 13.1768C21.8955 13.6837 21.6088 14.2963 21.6088 15.0144C18.0371 15.0144 18.4654 13.8877 20.4821 11.2125C21.5869 10.1564 22.9114 9.6284 24.4582 9.6284H24.4582ZM23.0661 23.125H25.8522V25.8497H23.0661V23.125Z" fill="#FFFFDD"/>
</g>
<defs>
<clipPath id="clip0_47_103">
<rect width="50" height="39.5373" fill="white"/>
</clipPath>
</defs>
</svg>
