<svg width="50" height="34" viewBox="0 0 50 34" fill="none" xmlns="http://www.w3.org/2000/svg">
<path d="M0.5 0.5V32.834H49.5V0.5H0.5ZM25.4316 7.66602C27.2347 7.66602 28.7805 8.25388 30.0684 9.42578C31.3563 10.5976 32 12.0039 32 13.6445C32 14.9101 31.1757 16.2206 29.5273 17.5801C27.8788 18.8926 27.0547 20.0878 27.0547 21.166H23.8086C23.8086 20.0878 24.0668 19.1738 24.582 18.4238C25.0972 17.6268 25.6632 17.0663 26.2812 16.7383C26.8993 16.3633 27.4672 15.9161 27.9824 15.4004C28.4975 14.8849 28.7539 14.3008 28.7539 13.6445C28.7539 12.8476 28.4198 12.1659 27.75 11.6035C27.0804 10.994 26.3073 10.6895 25.4316 10.6895C24.556 10.6895 23.7829 10.9941 23.1133 11.6035C22.4435 12.166 22.1094 12.8476 22.1094 13.6445C17.9458 13.6445 18.444 12.3944 20.7949 9.42578C22.0827 8.25398 23.6285 7.66602 25.4316 7.66602ZM23.8086 22.6426H27.0547V25.666H23.8086V22.6426Z" fill="#FFFFDD"/>
</svg>
