<svg width="38" height="50" viewBox="0 0 38 50" fill="none" xmlns="http://www.w3.org/2000/svg">
<g clip-path="url(#clip0_47_104)">
<path d="M10.8426 0.13678L10.6799 0.94794L11.5724 2.08237L12.4649 3.13748L11.8977 3.78601L10.8446 4.27191L11.4118 4.92243L11.8977 6.05686L11.8164 6.94934L12.8695 8.00246L12.3836 8.56967L11.0052 8.16508H9.78945L9.46419 9.13689L9.62682 10.6779L8.65502 10.8405L8.16713 9.62478L7.68123 9.05756L5.41038 9.13689L4.35726 9.94805L3.30414 10.8405L3.62741 11.733L5.0871 12.1376L5.49367 13.1927L4.92646 14.1645V15.9494L4.6012 17.895L3.62939 19.5174L2.33233 20.4892L0.710009 20.7331L0.791323 21.8695L0.870654 23.8964L0.466066 25.6794L0.140808 27.3811L0.708025 28.3548L2.00509 29.6519L0.78934 31.7601L1.19591 32.7339L1.84444 34.1123L1.68181 36.8691L2.16772 37.7615L3.70872 38.1661L5.73563 38.896L9.54749 39.1399L8.49239 41.1668L6.95337 42.9498L6.30285 45.3019L6.46548 48.0587L6.78677 48.6259L10.3547 49.1138L12.221 48.0587L15.3823 48.2213L15.4636 49.5184L16.598 49.5997L19.4381 49.1931L21.465 49.8437L22.1929 48.8699L23.4106 49.1138L25.9651 48.019L28.6802 48.384L29.4913 47.2892L29.0054 45.2206L31.9248 42.5452L33.5451 41.8967L33.0196 41.3294L27.869 36.5438L27.1808 35.0048L27.3018 33.3011L26.207 30.9906L28.7615 30.7467L33.1406 28.0316L34.6796 27.7876L34.9652 26.2466L35.5721 26.4093L37.1547 27.9503L37.5196 26.7345L37.599 24.1384L36.5459 21.219L35.937 15.7868L34.5189 14.0852L34.9255 11.5704L34.5189 10.6799L33.4658 8.56967L33.9517 6.86802L32.3294 6.21949L31.0323 6.54276L29.8979 5.81292V4.83913L31.8435 4.92044L32.0874 3.86732L30.6277 2.245L28.9241 3.13748L29.5726 4.59717L28.4382 4.7598L27.4644 3.7047L26.4926 3.94864L25.5188 5.2457L23.4106 5.40833L22.6808 7.27261L21.3024 7.10998L19.1922 7.92114L19.1128 6.54276L20.7352 5.48964L20.4912 4.51586L19.1942 4.67848L18.2204 4.27191L17.0046 4.10928L16.0308 3.30011L16.2748 2.16369L15.4636 1.43384L14.7338 1.7591L13.8433 0.218094L10.8426 0.13678ZM16.9114 17.9228L17.8515 17.9486L20.4178 24.9734C21.8296 28.8373 22.9842 32.031 22.9842 32.0695C22.9842 32.108 22.5238 32.1285 21.9608 32.1151L20.9375 32.0913L20.3702 30.4631L19.803 28.8348L16.8955 28.8566L13.9861 28.8804L13.4188 30.5067L12.8536 32.133H11.8064C11.002 32.133 10.7717 32.1094 10.8029 32.0259C10.8251 31.9663 11.9776 28.8126 13.3653 25.019C14.753 21.2252 15.9069 18.0712 15.9297 18.0101C15.9606 17.9266 16.206 17.9046 16.9114 17.9228V17.9228ZM16.9273 20.6558C16.8948 20.6184 16.4016 21.9273 15.8325 23.5632C15.2633 25.1993 14.7806 26.5857 14.7596 26.6453C14.7296 26.7304 15.1867 26.7543 16.8737 26.7543C18.0566 26.7543 19.0236 26.7205 19.0236 26.679C19.0236 26.5638 16.9945 20.7338 16.9273 20.6558V20.6558Z" fill="#FFFFDD"/>
</g>
<defs>
<clipPath id="clip0_47_104">
<rect width="37.7347" height="50" fill="white"/>
</clipPath>
</defs>
</svg>
