<svg width="50" height="50" viewBox="0 0 50 50" fill="none" xmlns="http://www.w3.org/2000/svg">
<path d="M43.6424 47.2592H42.2715V34.6473H43.6424C44.401 34.6473 45.0132 34.0369 45.0132 33.2764C45.0132 32.5224 44.401 31.9055 43.6424 31.9055H6.35762C5.60083 31.9055 4.98676 32.5224 4.98676 33.2764C4.98676 34.0369 5.60083 34.6473 6.35762 34.6473H7.72849V47.2592H6.35762C5.60083 47.2592 4.98676 47.8752 4.98676 48.6291C4.98676 49.3906 5.60083 50 6.35762 50H43.6424C44.401 50 45.0132 49.3906 45.0132 48.6291C45.0132 47.877 44.401 47.2592 43.6424 47.2592ZM38.4331 47.2592H36.1308V34.6473H38.4331V47.2592ZM23.8484 34.6473H26.1507V47.2592H23.8484V34.6473ZM20.0109 47.2592H17.7076V34.6473H20.0109V47.2592ZM29.99 34.6473H32.2923V47.2592H29.99V34.6473ZM11.566 34.6473H13.8683V47.2592H11.566V34.6473Z" fill="#FFFFDD"/>
<path d="M11.8401 19.7386H38.1589C38.7636 19.7386 39.2556 19.2475 39.2556 18.6419C39.2556 18.0391 38.7636 17.5462 38.1589 17.5462H38.1026C37.6068 11.5275 33.0595 6.6656 27.1929 5.68064V4.1126H25.2737V0.274173C25.2737 0.12488 25.1507 0 24.9995 0C24.8483 0 24.7253 0.12488 24.7253 0.274173V4.11166H22.8071V5.67971C16.9405 6.66466 12.3941 11.5265 11.8955 17.5452H11.8401C11.2355 17.5452 10.7444 18.0382 10.7444 18.641C10.7444 19.2475 11.2355 19.7386 11.8401 19.7386Z" fill="#FFFFDD"/>
<path d="M10.196 24.3995H11.5772C11.5772 24.4202 11.566 24.439 11.566 24.454V30.3713H14.3077V24.454C14.3077 24.4343 14.2974 24.4146 14.2974 24.3995H15.5997C15.5997 24.4202 15.5894 24.439 15.5894 24.454V30.3713H18.3302V24.454C18.3302 24.4343 18.3198 24.4146 18.3198 24.3995H19.6221C19.6221 24.4202 19.6118 24.439 19.6118 24.454V30.3713H22.3536V24.454C22.3536 24.4343 22.3423 24.4146 22.3423 24.3995H23.6446C23.6446 24.4202 23.6333 24.439 23.6333 24.454V30.3713H26.3751V24.454C26.3751 24.4343 26.3638 24.4146 26.3638 24.3995H27.6661C27.6661 24.4202 27.6549 24.439 27.6549 24.454V30.3713H30.3966V24.454C30.3966 24.4343 30.3863 24.4146 30.3863 24.3995H31.6886C31.6886 24.4202 31.6773 24.439 31.6773 24.454V30.3713H34.4191V24.454C34.4191 24.4343 34.4078 24.4146 34.4078 24.3995H35.7101C35.7101 24.4202 35.6998 24.439 35.6998 24.454V30.3713H38.4415V24.454C38.4415 24.4343 38.4302 24.4146 38.4302 24.3995H39.8114C40.5701 24.3995 41.1823 23.7883 41.1823 23.0287C41.1823 22.2709 40.5701 21.6578 39.8114 21.6578H10.2045C9.44863 21.6578 8.83362 22.2709 8.83362 23.0287C8.83362 23.7845 9.4383 24.3995 10.196 24.3995Z" fill="#FFFFDD"/>
</svg>
